<svg xmlns="http://www.w3.org/2000/svg" viewBox="0 0 512 512" role="img" aria-label="Gateduino">
  <defs>
    <linearGradient id="bg" x1="0" y1="0" x2="1" y2="1">
      <stop offset="0" stop-color="#11271C"/>
      <stop offset="1" stop-color="#081109"/>
    </linearGradient>
    <linearGradient id="acc" x1="0" y1="0" x2="1" y2="1">
      <stop offset="0" stop-color="#48E08A"/>
      <stop offset="1" stop-color="#23B866"/>
    </linearGradient>
  </defs>

  <rect width="512" height="512" rx="104" fill="url(#bg)"/>
  <rect x="6" y="6" width="500" height="500" rx="100" fill="none" stroke="#1E4633" stroke-width="3"/>

  <!-- RF waves: the mower approaching the gate -->
  <g fill="none" stroke="url(#acc)" stroke-linecap="round">
    <path d="M372 196 a64 64 0 0 1 0 120" stroke-width="14" opacity="0.95"/>
    <path d="M404 168 a100 100 0 0 1 0 176" stroke-width="12" opacity="0.55"/>
    <path d="M436 142 a136 136 0 0 1 0 228" stroke-width="10" opacity="0.30"/>
  </g>

  <!-- Gate posts -->
  <g fill="#E8F5EE">
    <rect x="92"  y="158" width="30" height="232" rx="12"/>
    <rect x="296" y="158" width="30" height="232" rx="12"/>
  </g>

  <!-- Gate panel -->
  <rect x="122" y="246" width="174" height="120" rx="14" fill="none" stroke="#E8F5EE" stroke-width="14"/>
  <g stroke="#E8F5EE" stroke-width="10" stroke-linecap="round">
    <line x1="166" y1="258" x2="166" y2="354"/>
    <line x1="209" y1="258" x2="209" y2="354"/>
    <line x1="252" y1="258" x2="252" y2="354"/>
  </g>
  <!-- Diagonal brace -->
  <line x1="130" y1="358" x2="288" y2="254" stroke="url(#acc)" stroke-width="12" stroke-linecap="round"/>
</svg>
